<svg width="31" height="30" viewBox="0 0 31 30" fill="none" xmlns="http://www.w3.org/2000/svg">
<path d="M15.125 0C6.845 0 0.125 6.72 0.125 15C0.125 23.28 6.845 30 15.125 30C23.405 30 30.125 23.28 30.125 15C30.125 6.72 23.405 0 15.125 0ZM15.125 4.5C17.615 4.5 19.625 6.51 19.625 9C19.625 11.49 17.615 13.5 15.125 13.5C12.635 13.5 10.625 11.49 10.625 9C10.625 6.51 12.635 4.5 15.125 4.5ZM15.125 25.8C11.375 25.8 8.06 23.88 6.125 20.97C6.17 17.985 12.125 16.35 15.125 16.35C18.11 16.35 24.08 17.985 24.125 20.97C22.19 23.88 18.875 25.8 15.125 25.8Z" fill="white"/>
</svg>
